<svg width="990" height="817" viewBox="0 0 990 817" fill="none" xmlns="http://www.w3.org/2000/svg">
<g clip-path="url(#clip0_61380_1958)">
<g opacity="0.4">
<path d="M404.642 102.995C362.499 117.556 332.721 84.8771 290.778 104.284C248.834 123.692 235.847 197.476 215.876 246.65C195.905 295.824 154.941 293.245 89.0236 319.122C23.1066 344.998 -34.8265 496.434 25.1082 609.032C85.0428 721.631 186.921 792.813 318.754 735.88C450.588 678.925 619.406 752.709 697.31 779.897C775.214 807.085 928.042 748.841 954.017 618.102C979.992 487.386 865.127 430.431 861.124 367.007C857.121 303.583 851.139 189.695 725.287 188.405C599.435 187.116 648.784 46.8849 547.507 43.4391C474.073 40.9493 434.643 92.6134 404.664 102.973L404.642 102.995Z" fill="#ACD5D4"/>
<path d="M754.465 77.6521C686.257 66.6479 652.72 130.917 695.598 132.251C738.475 133.584 784.532 128.049 791.715 161.284C798.899 194.519 861.235 137.719 820.36 122.269C779.484 106.841 808.684 86.3887 754.443 77.6298L754.465 77.6521Z" fill="#ACD5D4"/>
<path d="M908.026 295.157C878.559 310.607 905.891 427.852 942.875 429.697C979.859 431.542 963.491 390.994 949.28 367.029C935.047 343.064 937.894 279.485 908.026 295.157Z" fill="#ACD5D4"/>
<path d="M881.384 172.288C856.098 176.512 862.191 218.372 884.23 212.837C906.269 207.301 903.423 168.598 881.384 172.288Z" fill="#ACD5D4"/>
<path d="M395.635 8.78137C337.724 39.1707 349.4 95.4144 409.868 63.1576C470.314 30.9009 451.834 -20.6965 395.635 8.78137Z" fill="#ACD5D4"/>
<path d="M125.807 166.375C63.4707 194.074 15.5675 253.008 34.7821 284.331C53.9746 315.654 83.1524 262.211 130.077 260.366C177.002 258.521 223.237 123.047 125.807 166.375Z" fill="#ACD5D4"/>
<path d="M442.582 748.485C354.938 753.176 327.472 823.069 432.575 816.578C537.677 810.086 563.941 741.994 442.582 748.485Z" fill="#ACD5D4"/>
</g>
<path opacity="0.4" d="M415.829 226.976C380.046 238.202 354.76 213.015 319.133 227.976C283.505 242.937 272.475 299.826 255.528 337.729C238.56 375.654 203.778 373.654 147.802 393.617C91.8257 413.58 42.6326 530.313 93.5159 617.146C144.399 703.957 230.932 758.845 342.884 714.939C454.836 671.034 598.19 727.922 664.352 748.863C730.513 769.827 860.279 724.921 882.34 624.127C904.401 523.355 806.86 479.449 803.458 430.542C800.055 381.634 794.985 293.845 688.103 292.845C581.221 291.845 615.47 189.917 537.121 181.091C475.207 174.111 441.27 219.017 415.829 226.998V226.976Z" fill="#ACD5D4"/>
<path d="M534.208 267.435C534.208 267.435 552.177 281.374 567.7 284.664C583.245 287.954 554.912 330.748 554.912 330.748C554.912 330.748 522.732 341.952 522.732 364.85C522.732 387.748 533.452 393.105 516.394 406.266C499.337 419.426 493.488 436.966 529.071 436.966C564.653 436.966 587.07 399.93 587.07 399.93L589.027 283.975C589.027 283.975 572.459 248.406 572.459 246.938C572.459 245.471 559.294 243.537 559.294 243.537L534.208 267.435Z" fill="#18203D"/>
<path d="M504.852 417.915C482.257 427.897 413.805 546.275 402.152 578.443C390.498 610.611 414.472 633.175 442.538 618.125C470.604 603.074 517.84 534.648 517.84 534.648L504.852 417.915Z" fill="#18203D"/>
<path d="M630.57 728.389H510.501C510.501 728.389 515.616 634.753 514.748 585.379C514.393 565.015 516.772 537.627 520.664 510.772C526.202 472.558 534.786 435.41 542.859 421.094C556.625 396.707 556.402 390.46 581.021 387.948C600.77 385.947 640.467 376.055 658.947 395.862C663.417 400.642 666.642 407.155 668.065 415.959C671.646 438.211 630.592 728.366 630.592 728.366L630.57 728.389Z" fill="#E5D157"/>
<g style="mix-blend-mode:multiply" opacity="0.3">
<path d="M630.57 728.389H510.501C510.501 728.389 515.616 634.753 514.748 585.379C514.393 565.015 516.772 537.627 520.664 510.772C528.826 544.274 546.84 559.391 559.983 570.995C583.245 591.514 651.675 395.884 651.675 395.884C651.675 395.884 654.277 395.817 658.903 395.884C663.373 400.664 666.598 407.177 668.021 415.981C671.601 438.234 630.548 728.389 630.548 728.389H630.57Z" fill="#4A6C8F"/>
</g>
<path d="M576.507 306.983C574.883 322.656 563.408 334.327 550.887 333.038C538.367 331.748 529.515 317.988 531.139 302.293C532.762 286.62 544.238 274.949 556.758 276.238C569.279 277.528 578.13 291.289 576.507 306.983Z" fill="#18203D"/>
<path d="M548.596 327.502L534.919 341.174C533.963 342.13 532.429 342.13 531.495 341.174C530.538 340.218 530.538 338.684 531.495 337.751L545.172 324.079C546.128 323.123 547.662 323.123 548.596 324.079C549.553 325.035 549.553 326.569 548.596 327.502Z" fill="#18203D"/>
<path d="M574.794 304.071C573.86 313.119 567.233 319.855 560.005 319.099C552.777 318.343 547.662 310.407 548.596 301.359C549.53 292.311 556.158 285.575 563.385 286.331C570.613 287.087 575.728 295.024 574.794 304.071Z" fill="white" stroke="#272525" stroke-miterlimit="10"/>
<path d="M534.897 458.419L525.112 544.341C525.112 544.341 528.559 588.691 530.094 626.483C530.383 633.708 530.605 640.666 530.716 647.069C531.406 686.884 534.208 732.301 534.208 732.301L466.423 730.901C466.423 730.901 498.558 605.853 497.869 582.777C497.513 571.195 494.355 557.701 491.442 545.074C488.573 532.558 485.971 520.909 486.683 512.906C488.106 496.834 502.072 466.111 502.072 466.111C502.072 466.111 500.649 421.383 504.874 417.892C509.055 414.402 568.078 391.527 568.078 391.527L534.92 458.419H534.897Z" fill="#D15735"/>
<g style="mix-blend-mode:multiply" opacity="0.3">
<path d="M466.4 730.901C466.4 730.901 498.536 605.853 497.847 582.777C497.491 571.195 494.333 557.701 491.419 545.074C501.783 571.395 518.04 604.808 530.071 626.483C530.36 633.708 530.583 640.666 530.694 647.069C531.383 686.884 534.185 732.301 534.185 732.301L466.4 730.901Z" fill="#4A6C8F"/>
</g>
<path d="M574.038 385.08C567.611 386.147 535.342 425.762 520.597 444.236C516.55 449.305 517.506 456.73 522.732 460.598L532.095 467.534L512.413 474.603C507.832 476.248 504.785 480.605 504.83 485.496C505.03 510.55 507.587 588.135 530.716 647.091C530.716 647.091 529.315 532.514 543.304 470.335C557.292 408.156 574.06 385.102 574.06 385.102L574.038 385.08Z" fill="#FC8165"/>
<path d="M714.501 447.26C713.989 450.416 711.988 456.952 709.052 465.689C695.798 505.015 663.484 588.891 663.484 610.033C663.484 635.887 692.862 732.301 692.862 732.301H562.852L572.637 646.38L581.822 610.833L583.823 603.074L634.128 405.355L632.038 388.593C632.038 388.593 669.088 397.663 691.461 406.755C713.812 415.848 717.303 429.808 714.523 447.282L714.501 447.26Z" fill="#D15735"/>
<g style="mix-blend-mode:multiply" opacity="0.3">
<path d="M683.277 699.378C688.57 718.207 692.862 732.301 692.862 732.301H562.852L572.637 646.38L573.905 641.533L581.822 610.833L609.754 609.855L643.891 608.654C643.891 608.654 598.079 597.072 600.836 589.892C603.594 582.711 695.219 519.798 697.443 470.713L709.075 465.667C695.82 504.993 663.506 588.869 663.506 610.01C663.506 614.212 664.285 620.281 665.575 627.506C669.222 647.714 676.961 676.902 683.277 699.355V699.378Z" fill="#4A6C8F"/>
</g>
<g style="mix-blend-mode:multiply" opacity="0.3">
<path d="M683.277 699.378C647.628 680.948 597.59 654.072 573.905 641.511L581.822 610.811L609.754 609.833C626.745 615.257 646.916 621.681 665.552 627.506C669.2 647.714 676.939 676.902 683.255 699.355L683.277 699.378Z" fill="#4A6C8F"/>
</g>
<path d="M629.258 385.08C629.258 385.08 592.919 517.82 572.637 646.38C572.637 646.38 628.769 552.855 646.76 502.458C648.495 497.59 646.76 492.166 642.49 489.209L624.343 476.604L644.292 469.957C649.696 468.156 652.965 462.665 651.942 457.063C648.228 436.522 639.621 390.438 636.908 387.192C633.417 382.991 629.213 385.103 629.213 385.103L629.258 385.08Z" fill="#FC8165"/>
<path d="M591.941 571.418L591.718 572.996L585.892 613.878C585.892 613.878 545.95 604.786 543.415 599.717C540.88 594.671 540.88 588.113 540.88 588.113C540.88 588.113 537.343 583.556 535.831 581.021C534.319 578.509 533.318 567.883 533.318 567.883C533.318 567.883 507.521 554.256 504.474 552.233C502.917 551.21 500.738 548.453 499.759 546.008C498.936 543.963 498.959 542.162 500.938 541.718C501.227 541.651 501.583 541.606 501.961 541.606C508.032 541.606 541.902 555.256 541.902 555.256C541.902 555.256 557.559 548.698 561.629 549.209C564.609 549.565 579.598 560.792 587.337 567.172C590.028 569.395 591.83 571.04 591.941 571.418Z" fill="#DD9091"/>
<path d="M591.941 571.44L585.869 613.878C585.869 613.878 545.928 604.786 543.415 599.74C540.88 594.693 540.88 588.113 540.88 588.113C540.88 588.113 537.343 583.578 535.831 581.044C534.319 578.532 533.318 567.905 533.318 567.905C533.318 567.905 507.521 554.278 504.496 552.255C501.65 550.365 496.624 542.718 500.96 541.74C514.304 553.255 540.768 563.326 540.768 563.326C540.768 563.326 551.243 586.668 558.493 591.514C564.942 595.805 574.572 587.713 587.359 567.194C590.05 569.417 591.852 571.062 591.963 571.44H591.941Z" fill="#D36E75"/>
<path d="M591.941 571.418L591.718 572.996C591.54 573.218 591.429 573.33 591.429 573.33C591.429 573.33 566.121 553.278 560.606 552.7C555.068 552.122 541.124 557.346 541.124 557.346C541.124 557.346 510.768 545.386 499.759 546.008C498.936 543.963 498.959 542.162 500.938 541.718C501.227 541.651 501.583 541.606 501.961 541.606C508.032 541.606 541.902 555.256 541.902 555.256C541.902 555.256 557.559 548.698 561.629 549.209C564.609 549.565 579.598 560.792 587.337 567.172C590.028 569.395 591.83 571.04 591.941 571.418Z" fill="white"/>
<path d="M759.958 660.34C754.353 684.794 711.721 673.612 669.8 656.85C627.857 640.066 574.06 615.634 574.06 615.634L580.198 592.959L586.826 568.461L588.049 563.948L695.686 598.873C695.42 597.694 684.3 552.099 678.851 514.507C677.517 505.326 676.539 496.634 676.138 489.186C674.359 456.707 694.552 425.251 700.846 416.27C702.025 414.625 702.692 413.735 702.692 413.735C722.262 421.405 734.85 437.478 741.143 496.167C745.525 536.849 755.577 588.246 759.468 624.104C761.203 639.999 761.737 652.826 760.002 660.34H759.958Z" fill="#D15735"/>
<path d="M733.827 619.125C732.848 618.814 701.602 608.565 686.368 603.697C674.359 599.829 613.379 577.998 586.781 568.461L588.004 563.948L695.642 598.873C705.85 603.341 732.981 618.658 733.827 619.147V619.125Z" fill="white"/>
<path d="M759.402 624.104C749.639 602.585 738.275 534.159 733.849 488.386C730.046 448.838 716.747 427.385 700.779 416.27C701.958 414.625 702.625 413.735 702.625 413.735C722.196 421.405 734.783 437.478 741.077 496.167C745.458 536.849 755.51 588.246 759.402 624.104Z" fill="white"/>
<g style="mix-blend-mode:multiply" opacity="0.3">
<path d="M759.958 660.34C754.353 684.794 711.721 673.612 669.8 656.85C627.857 640.066 574.06 615.634 574.06 615.634L580.198 592.959C600.747 604.875 711.521 646.757 737.007 645.824C749.817 645.357 756.133 634.886 759.446 624.126C761.181 640.021 761.715 652.848 759.98 660.362L759.958 660.34Z" fill="#4A6C8F"/>
</g>
<g style="mix-blend-mode:multiply" opacity="0.3">
<path d="M731.536 602.363L695.642 598.85C695.375 597.672 684.255 552.077 678.807 514.485C696.843 547.253 731.558 602.341 731.558 602.341L731.536 602.363Z" fill="#4A6C8F"/>
</g>
<path d="M623.898 341.842L626.634 397.396C626.634 397.396 622.809 401.22 616.359 404.977C610.577 408.356 602.705 411.713 593.609 412.246C574.35 413.358 569.39 405.644 569.39 405.644L569.613 386.125L569.946 358.337C569.946 358.337 562.029 359.382 555.291 354.268C551.087 351.09 547.351 345.51 546.306 335.795C544.038 314.853 549.308 270.259 567.344 254.208C571.125 250.829 575.462 248.717 580.399 248.339C580.399 248.339 586.67 247.406 594.921 247.117C610.399 246.583 632.905 248.295 634.329 262.634C636.53 284.642 623.876 341.864 623.876 341.864L623.898 341.842Z" fill="#DD9091"/>
<path d="M623.898 341.841L626.634 397.396C626.634 397.396 622.809 401.219 616.359 404.976C609.932 399.063 606.374 389.482 607.619 375.499C610.733 340.619 592.652 352.623 592.652 352.623C603.861 334.639 608.665 277.884 594.943 247.094C610.421 246.561 632.928 248.272 634.351 262.611C636.553 284.62 623.898 341.841 623.898 341.841Z" fill="#D36E75"/>
<path d="M555.291 354.268C551.087 351.089 547.351 345.509 546.306 335.795C544.038 314.853 549.308 270.259 567.344 254.208C552.733 283.108 547.64 326.991 555.291 354.268Z" fill="white"/>
<path d="M597.078 357.558C591.385 366.962 581.889 379.811 569.657 386.125L569.991 358.337C569.991 358.337 580.376 358.559 592.675 352.645C595.766 351.156 598.857 354.646 597.078 357.581V357.558Z" fill="#D36E75"/>
<path d="M560.828 344.753H554.067C551.043 344.753 548.574 342.286 548.574 339.262C548.574 336.239 551.043 333.771 554.067 333.771H560.828C563.853 333.771 566.321 336.239 566.321 339.262C566.321 342.286 563.853 344.753 560.828 344.753Z" fill="#18203D"/>
<path d="M552.533 341.886H533.185C531.85 341.886 530.761 340.797 530.761 339.463C530.761 338.129 531.85 337.04 533.185 337.04H552.533C553.867 337.04 554.957 338.129 554.957 339.463C554.957 340.797 553.867 341.886 552.533 341.886Z" fill="#18203D"/>
<path d="M672.469 235.779C672.469 237.446 672.269 239.069 671.868 240.603C670.934 244.271 668.977 247.517 666.309 250.029C662.817 253.297 658.08 255.32 652.921 255.32C642.135 255.32 633.35 246.583 633.35 235.757C633.35 235.179 633.35 234.601 633.439 234.045C633.773 230.11 635.285 226.531 637.598 223.619C641.178 219.106 646.716 216.216 652.921 216.216C663.729 216.216 672.491 224.952 672.491 235.779H672.469Z" fill="#82435C"/>
<path d="M672.469 235.779C672.469 237.446 672.269 239.069 671.868 240.603C671.068 232.555 667.287 224.441 656.657 221.284C648.339 218.817 642.023 220.729 637.575 223.619C641.156 219.106 646.693 216.216 652.898 216.216C663.706 216.216 672.469 224.952 672.469 235.779Z" fill="white"/>
<path d="M666.309 250.029C662.817 253.296 658.08 255.319 652.921 255.319C642.135 255.319 633.35 246.583 633.35 235.756C633.35 235.178 633.35 234.6 633.439 234.045C639.888 229.665 649.918 225.108 658.747 230.666C665.73 235.067 667.509 242.67 666.331 250.006L666.309 250.029Z" fill="#4B1C4A"/>
<path d="M756.689 416.692C756.689 417.626 756.644 418.559 756.622 419.449V419.493C755.154 446.192 732.826 451.75 732.826 451.75C730.58 436.477 707.073 411.445 689.526 418.181C671.98 424.895 645.092 426.407 646.582 406.999C648.072 387.592 625.678 392.06 617.471 378.255C609.265 364.45 620.829 339.84 620.829 339.84L624.566 311.474C624.566 311.474 624.388 311.185 624.054 310.629C622.742 308.562 619.073 302.893 613.735 295.779C607.019 286.82 610.377 268.524 610.377 268.524C610.377 268.524 612.201 255.053 614.78 248.228C614.269 248.85 605.974 259.299 600.881 272.57C592.341 275.438 579.509 277.995 568.545 272.615C563.853 270.325 559.338 268.88 555.179 267.991C557.07 258.565 562.185 249.895 562.496 249.362C556.158 253.963 552.021 261.744 549.775 267.079C540.546 265.946 534.208 267.413 534.208 267.413C534.208 267.413 534.208 267.413 534.208 267.346C543.971 222.285 613.691 233.066 613.691 233.066C656.612 231.955 667.065 271.148 660.704 297.624C654.344 324.101 668.154 358.803 689.082 355.068C709.964 351.334 713.344 372.231 719.327 380.434C725.287 388.637 756.644 387.503 756.644 416.625L756.689 416.692Z" fill="#82435C"/>
<path d="M756.689 416.692C756.689 417.626 756.644 418.56 756.622 419.449C754.287 389.193 721.306 396.351 713.278 380.612C704.961 364.272 706.918 360.404 689.749 360.671C672.58 360.96 659.837 348.777 656.234 323.857C652.632 298.936 659.837 285.375 652.365 261.855C644.892 238.313 611.667 230.288 576.752 236.379C542.948 242.292 534.742 265.879 534.23 267.369C543.993 222.307 613.713 233.089 613.713 233.089C656.635 231.977 667.087 271.17 660.727 297.647C654.366 324.124 668.177 358.826 689.104 355.091C709.987 351.356 713.367 372.253 719.349 380.456C725.309 388.659 756.667 387.525 756.667 416.648L756.689 416.692Z" fill="white"/>
<path d="M756.6 419.471C755.132 446.17 732.804 451.727 732.804 451.727C730.558 436.455 707.051 411.423 689.504 418.159C671.957 424.873 645.07 426.384 646.56 406.977C648.05 387.57 625.655 392.038 617.449 378.233C609.243 364.427 620.807 339.818 620.807 339.818L624.543 311.452C624.543 311.452 624.365 311.163 624.032 310.607C637.709 320.522 653.41 326.368 647.961 345.398C638.865 377.21 684.322 352.223 689.326 379.033C694.33 405.843 712.055 392.66 727.978 408.578C738.541 419.137 749.728 425.095 756.577 419.471H756.6Z" fill="#4B1C4A"/>
<path d="M639.755 282.041C639.755 282.041 639.977 244.071 613.757 229.599H592.452C592.452 229.599 622.253 239.825 622.23 284.508L639.755 282.041Z" fill="#E5D157"/>
<path d="M632.105 335.483C644.706 335.483 654.922 322.704 654.922 306.939C654.922 291.175 644.706 278.395 632.105 278.395C619.503 278.395 609.287 291.175 609.287 306.939C609.287 322.704 619.503 335.483 632.105 335.483Z" fill="#18203D"/>
<path d="M639.755 320.678C647.026 320.678 652.921 313.303 652.921 304.205C652.921 295.107 647.026 287.732 639.755 287.732C632.484 287.732 626.589 295.107 626.589 304.205C626.589 313.303 632.484 320.678 639.755 320.678Z" fill="#E5D157"/>
<path d="M534.23 341.641C532.896 339.24 524.489 342.997 516.928 349.6C508.077 357.292 507.209 357.803 507.209 357.803C507.209 357.803 497.624 359.959 496.423 360.204C495.222 360.449 493.065 364.272 493.065 364.272C493.065 364.272 489.24 364.984 486.371 366.429C483.502 367.851 478.921 373.142 478.921 373.142C478.921 373.142 473.428 374.098 471.738 376.01C470.181 377.788 464.71 395.706 463.754 402.442C463.665 402.976 463.621 403.42 463.598 403.776C463.354 409.045 464.065 413.113 464.065 413.113L463.154 415.381L458.572 426.763L488.818 432.743C488.818 432.743 493.999 424.851 501.205 419.582C505.608 416.381 513.014 410.69 514.615 408.8C518.84 403.798 522.31 379.611 525.001 375.365C527.692 371.119 525.001 366.918 521.531 369.585C520.975 370.03 520.219 370.853 519.352 371.942C519.308 371.831 519.285 371.764 519.241 371.697C519.241 371.697 519.196 371.519 519.152 371.431C518.752 370.452 516.928 368.385 514.837 366.251C522.243 357.603 533.185 347.043 534.23 343.42C534.452 342.642 534.43 342.042 534.186 341.641H534.23ZM507.699 389.615C507.699 389.615 507.187 385.48 507.632 380.189V380.123C507.632 380.123 507.81 380.234 507.899 380.301H507.943C509.5 381.279 511.39 381.457 512.969 381.168C510.1 385.636 507.699 389.615 507.699 389.615ZM515.683 375.632C516.016 375.721 516.261 375.743 516.528 375.788C516.172 376.321 515.794 376.81 515.416 377.344C514.726 376.61 513.792 375.721 512.747 374.721L513.147 374.787C514.126 375.187 514.949 375.476 515.66 375.632H515.683Z" fill="#DD9091"/>
<path d="M525.023 375.388C522.332 379.634 518.863 403.799 514.637 408.823C513.014 410.712 505.608 416.403 501.227 419.605C493.999 424.873 488.84 432.765 488.84 432.765L458.594 426.785L463.176 415.425C476.43 410.09 479.944 405.377 479.944 402.843C479.944 400.175 479.9 384.903 479.9 384.903C479.9 384.903 484.992 382.657 486.127 382.991C487.261 383.324 497.758 385.925 499.048 385.392C500.36 384.836 492.687 378.522 492.687 378.522C492.687 378.522 493.888 376.744 496.557 376.744C498.936 376.744 506.053 379.612 507.61 380.256C507.165 385.547 507.676 389.682 507.676 389.682C507.676 389.682 510.078 385.703 512.947 381.234C512.947 381.234 515.616 380.301 515.616 379.812C515.616 379.545 515.527 378.389 515.438 377.411C515.371 376.566 515.327 375.832 515.327 375.832L515.682 375.699L518.396 374.721L519.241 371.786C519.241 371.786 519.307 371.942 519.352 372.031C520.219 370.942 520.975 370.097 521.531 369.674C525.001 366.985 527.692 371.208 525.001 375.454L525.023 375.388Z" fill="#D36E75"/>
<path d="M485.882 410.001C485.882 410.001 493.31 400.908 504.096 396.351" stroke="#AF565B" stroke-width="2" stroke-linecap="round" stroke-linejoin="round"/>
<path d="M479.433 396.107L479.922 384.858L486.149 382.946C486.149 382.946 498.358 386.77 499.092 385.347C499.804 383.902 488.306 374.343 488.306 374.343L481.834 372.898" stroke="#AF565B" stroke-width="2" stroke-linecap="round" stroke-linejoin="round"/>
<path d="M496.179 366.184L506.475 369.296C506.475 369.296 514.615 376.01 516.061 378.144C517.506 380.278 511.746 382.701 507.921 380.301C504.096 377.9 498.825 376.944 498.825 376.944L492.309 377.055" stroke="#AF565B" stroke-width="2" stroke-linecap="round" stroke-linejoin="round"/>
<path d="M508.41 359.959C508.41 359.959 518.24 369.052 519.196 371.453C520.153 373.854 519.908 377.677 513.214 374.81" stroke="#AF565B" stroke-width="2" stroke-linecap="round" stroke-linejoin="round"/>
<path d="M519.129 351.023C513.525 355.113 509.144 358.981 509.144 358.981L512.369 363.583C511.968 363.405 505.83 360.248 504.741 360.07C503.607 359.893 496.357 363.227 496.357 363.227L494.288 365.65C494.288 365.65 485.148 369.585 483.858 370.497C482.546 371.43 480.856 374.409 480.856 374.409C480.856 374.409 478.632 374.787 474.14 377.788C471.404 379.611 466.845 392.727 463.732 402.442C464.688 395.706 470.159 377.788 471.716 376.01C473.406 374.098 478.899 373.142 478.899 373.142C478.899 373.142 483.458 367.873 486.349 366.428C489.218 364.983 493.043 364.272 493.043 364.272C493.043 364.272 495.2 360.448 496.401 360.204C497.602 359.959 507.187 357.803 507.187 357.803C507.187 357.803 508.054 357.292 516.906 349.6C524.467 343.02 532.873 339.263 534.208 341.641C529.382 343.553 523.155 348.044 519.107 351.023H519.129Z" fill="white"/>
<path d="M498.67 429.252C498.67 429.252 497.847 431.675 496.446 435.877C496.446 435.877 496.401 435.922 496.446 435.922C488.284 460.131 460.396 543.318 452.835 569.528C443.939 600.317 440.514 633.841 400.817 621.525C384.56 616.479 379.912 602.252 381.536 584.6C381.714 582.666 381.958 580.666 382.292 578.643C386.162 554.255 400.039 524.955 411.225 504.437C431.752 466.8 452.168 416.937 452.168 416.937L458.306 418.559L498.714 429.275L498.67 429.252Z" fill="#D15735"/>
<g style="mix-blend-mode:multiply" opacity="0.3">
<path d="M496.423 435.921C488.262 460.131 460.374 543.318 452.812 569.528C443.917 600.317 440.492 633.841 400.795 621.525C384.538 616.479 379.89 602.251 381.513 584.6C396.414 605.964 426.348 595.516 441.359 544.629C454.525 500.101 483.658 454.595 496.446 435.921H496.423Z" fill="#4A6C8F"/>
</g>
<path d="M458.261 418.559C448.187 442.546 425.347 495.678 408.223 527.001C392.277 556.167 385.094 571.907 382.247 578.643C386.117 554.255 399.994 524.955 411.18 504.437C431.707 466.8 452.123 416.937 452.123 416.937L458.261 418.559Z" fill="white"/>
<path d="M230.843 728.411C230.843 728.411 196.461 732.657 185.853 726.321C175.245 719.963 188.077 715.54 182.828 709.826C177.558 704.113 152.783 704.469 146.801 695.688C140.818 686.906 157.52 682.794 151.271 674.146C145.022 665.498 118.09 667.832 108.038 654.472C97.9857 641.111 116.867 640.4 121.604 635.909C126.341 631.419 119.491 623.727 103.523 617.413C87.5332 611.122 77.3032 595.827 79.1936 590.27C81.0839 584.712 95.4949 592.048 97.1183 585.912C98.7418 579.799 66.1614 559.058 75.3684 545.808C84.5754 532.559 107.838 552.789 115.999 561.925C124.161 571.062 114.087 544.919 115.532 539.895C116.978 534.871 128.787 531.914 139.818 561.659C150.848 591.426 155.229 598.206 161.679 595.294C168.128 592.404 159.699 576.642 165.904 573.174C172.109 569.706 182.85 586.112 185.83 610.722C188.811 635.331 201.976 633.13 202.065 624.327C202.154 615.524 214.008 608.165 218.189 627.195C222.347 646.224 218.055 656.895 220.702 662.786C223.348 668.677 228.085 657.451 234.89 659.096C241.695 660.763 245.187 699.956 245.476 712.627C245.787 725.299 230.865 728.367 230.865 728.367L230.843 728.411Z" fill="#18203D"/>
<path d="M229.731 678.036C228.218 677.836 226.817 678.903 226.639 680.415L223.615 703.735C221.302 700.934 218.989 698.155 216.676 695.376L218.322 678.77C218.478 677.258 217.366 675.902 215.831 675.747C214.319 675.591 212.962 676.703 212.807 678.236L211.695 689.441C210.761 688.329 209.827 687.195 208.893 686.084L210.138 651.893C210.182 650.359 209.004 649.092 207.469 649.025C205.935 648.981 204.667 650.159 204.6 651.693L203.577 679.793C199.708 675.213 195.86 670.722 192.08 666.276L192.413 644.135C192.413 642.601 191.212 641.356 189.678 641.333C188.143 641.311 186.898 642.534 186.876 644.068L186.631 659.963C183.918 656.828 181.249 653.716 178.603 650.67L176.957 609.61C176.89 608.076 175.6 606.898 174.088 606.965C172.554 607.032 171.375 608.321 171.442 609.833L172.821 644.001C168.528 639.088 164.347 634.309 160.278 629.729L157.209 609.166C156.986 607.654 155.585 606.609 154.073 606.831C152.583 607.054 151.515 608.477 151.738 609.966L153.561 622.126C150.915 619.125 148.313 616.235 145.8 613.412L140.04 577.887C139.795 576.375 138.372 575.353 136.86 575.597C135.348 575.842 134.325 577.265 134.569 578.776L138.95 605.787C135.837 602.341 132.879 599.051 130.077 595.961L126.963 575.264C126.741 573.752 125.318 572.707 123.805 572.93C122.293 573.152 121.248 574.575 121.47 576.086L123.338 588.58C109.239 573.13 100.499 563.837 100.254 563.593C99.2088 562.481 97.4519 562.437 96.34 563.482C95.228 564.526 95.1835 566.283 96.2288 567.394C96.4734 567.661 105.569 577.309 120.203 593.36L108.305 591.67C106.792 591.448 105.391 592.515 105.169 594.027C104.947 595.538 106.014 596.939 107.526 597.161L126.029 599.807C129.098 603.186 132.345 606.787 135.77 610.611L111.841 606.498C110.328 606.231 108.905 607.254 108.638 608.766C108.371 610.277 109.394 611.7 110.907 611.967L141.73 617.258C144.577 620.437 147.535 623.749 150.559 627.173L135.637 625.038C134.124 624.816 132.723 625.861 132.501 627.373C132.279 628.884 133.324 630.285 134.836 630.507L156.208 633.575C160.545 638.488 165.037 643.601 169.663 648.892L136.682 648.136C135.147 648.114 133.88 649.314 133.857 650.848C133.835 652.382 135.036 653.649 136.571 653.672L174.6 654.561C177.602 658.007 180.627 661.519 183.696 665.098L167.35 666.543C165.815 666.676 164.703 668.033 164.837 669.544C164.97 671.078 166.304 672.19 167.839 672.056L188.121 670.256C192.169 674.991 196.283 679.815 200.419 684.706L172.153 686.328C170.619 686.417 169.462 687.729 169.551 689.241C169.64 690.775 170.952 691.931 172.465 691.842L204.867 689.996C205.935 691.264 207.002 692.531 208.07 693.82L196.617 694.265C195.082 694.331 193.903 695.621 193.948 697.133C194.015 698.666 195.304 699.845 196.817 699.778L212.54 699.178C215.097 702.246 217.633 705.313 220.19 708.404L197.84 711.205C196.327 711.405 195.238 712.783 195.438 714.295C195.638 715.806 197.017 716.896 198.529 716.696L224.349 713.45C227.284 717.007 230.198 720.608 233.111 724.187C233.912 725.188 235.268 725.477 236.402 724.965C236.625 724.876 236.825 724.743 237.003 724.587C238.182 723.632 238.382 721.875 237.403 720.697C234.401 717.007 231.399 713.317 228.396 709.671L232.088 681.215C232.288 679.704 231.221 678.303 229.708 678.125L229.731 678.036Z" fill="#18203D"/>
<path d="M242.496 717.585C242.496 717.585 219.812 696.888 217.966 686.084C216.12 675.28 226.506 681.371 227.329 674.524C228.152 667.677 213.607 651.182 216.098 642.111C218.567 633.041 230.976 641.889 233.2 632.686C235.424 623.482 218.322 606.698 221.525 592.226C224.727 577.776 236.113 590.069 241.851 590.647C247.589 591.248 248.856 582.2 243.875 567.794C238.916 553.411 243.297 537.694 248.123 535.76C252.948 533.826 256.329 547.764 261.399 545.319C266.47 542.896 261.666 508.972 275.899 507.549C290.132 506.126 289.91 533.448 288.464 544.208C286.997 554.967 298.828 533.114 303.053 531.18C307.279 529.246 316.086 535.515 302.386 560.08C288.687 584.667 286.641 591.537 292.312 594.204C297.983 596.872 303.743 582.111 309.636 584.289C315.552 586.468 310.681 603.163 295.803 619.347C280.925 635.531 290.021 643.134 296.004 638.11C301.986 633.086 313.773 636.843 303.365 650.626C292.957 664.409 283.26 667.677 280.836 672.857C278.39 678.036 288.687 674.746 291.489 680.282C294.291 685.817 269.873 710.782 261.511 718.274C253.149 725.788 242.474 717.496 242.474 717.496L242.496 717.585Z" fill="#18203D"/>
<path d="M275.81 687.773C275.077 686.64 273.542 686.328 272.408 687.062L254.95 698.466C255.506 695.287 256.04 692.131 256.574 688.974L268.716 680.504C269.828 679.726 270.095 678.192 269.317 677.08C268.538 675.969 267.004 675.702 265.892 676.48L257.708 682.193C257.93 680.926 258.13 679.637 258.353 678.37L282.104 659.496C283.172 658.651 283.35 657.117 282.504 656.05C281.659 654.983 280.125 654.805 279.057 655.65L259.531 671.167C260.376 665.921 261.199 660.741 262 655.628L277.123 643.09C278.168 642.223 278.301 640.667 277.434 639.644C276.567 638.599 275.032 638.466 273.987 639.333L263.134 648.336C263.69 644.69 264.224 641.111 264.758 637.576L291.489 612.789C292.49 611.878 292.534 610.322 291.623 609.321C290.711 608.321 289.154 608.276 288.153 609.188L265.914 629.818C266.759 624.082 267.56 618.525 268.316 613.145L280.414 599.206C281.304 598.184 281.192 596.628 280.169 595.738C279.146 594.849 277.59 594.96 276.7 595.983L269.561 604.208C270.05 600.696 270.518 597.272 270.962 593.96L291.578 569.595C292.445 568.55 292.334 567.016 291.289 566.127C290.244 565.26 288.709 565.371 287.82 566.416L272.141 584.934C272.675 580.844 273.186 576.953 273.653 573.285L285.818 559.258C286.708 558.235 286.596 556.679 285.573 555.79C284.55 554.901 282.994 555.012 282.104 556.034L274.765 564.504C277.056 546.097 278.257 534.871 278.301 534.537C278.435 533.181 277.478 531.981 276.122 531.847C274.765 531.714 273.564 532.67 273.431 534.026C273.386 534.337 272.141 546.053 269.761 565.127L264.046 556.145C263.312 555.012 261.8 554.656 260.666 555.39C259.531 556.123 259.176 557.635 259.909 558.769L268.805 572.752C268.294 576.776 267.738 581.044 267.159 585.535L256.129 567.039C255.439 565.883 253.927 565.505 252.771 566.194C251.614 566.883 251.236 568.395 251.926 569.551L266.136 593.36C265.625 597.117 265.091 601.007 264.557 605.031L257.396 593.76C256.662 592.626 255.15 592.27 254.016 593.004C252.882 593.738 252.526 595.249 253.26 596.383L263.512 612.545C262.712 618.303 261.844 624.283 260.932 630.44L242.429 607.787C241.562 606.743 240.028 606.587 238.982 607.432C237.937 608.299 237.781 609.833 238.627 610.877L259.954 636.999C259.353 641 258.731 645.068 258.108 649.203L247.722 639.022C246.744 638.066 245.209 638.088 244.253 639.066C243.297 640.044 243.319 641.578 244.297 642.534L257.196 655.161C256.351 660.607 255.462 666.165 254.55 671.767L237.159 653.672C236.225 652.693 234.668 652.671 233.689 653.605C232.711 654.539 232.689 656.095 233.623 657.073L253.549 677.836C253.304 679.281 253.06 680.748 252.815 682.193L245.921 674.724C245.009 673.724 243.452 673.679 242.452 674.591C241.451 675.502 241.406 677.058 242.318 678.059L251.792 688.285C251.192 691.753 250.591 695.265 249.991 698.755L235.224 685.328C234.223 684.417 232.666 684.483 231.755 685.484C230.843 686.484 230.91 688.04 231.91 688.952L248.99 704.469C248.278 708.492 247.544 712.538 246.811 716.562C246.61 717.674 247.189 718.763 248.167 719.23C248.345 719.319 248.567 719.385 248.768 719.43C250.102 719.674 251.37 718.785 251.614 717.451C252.37 713.294 253.126 709.159 253.86 705.024L275.166 691.108C276.3 690.374 276.611 688.84 275.877 687.707L275.81 687.773Z" fill="#18203D"/>
<path d="M239.694 719.874C239.694 719.874 208.47 739.326 195.416 737.948C182.361 736.57 192.747 726.566 185.119 723.409C177.491 720.252 153.762 731.657 144.088 725.854C134.414 720.052 148.647 708.648 138.772 703.09C128.898 697.532 103.968 711.805 88.334 703.446C72.6998 695.065 90.5579 685.928 93.1154 679.503C95.6729 673.079 85.643 668.699 67.4291 669.766C49.2152 670.833 32.5136 660.674 31.8464 654.472C31.1792 648.269 48.3479 648.892 47.1915 642.267C46.035 635.642 5.35954 630.196 8.31736 613.323C11.2752 596.45 42.7214 605.564 54.6638 610.722C66.6063 615.879 45.2344 595.205 44.3671 589.691C43.522 584.2 53.5741 576.086 77.5035 599.829C101.411 623.593 108.683 628.15 113.62 622.482C118.535 616.813 103.368 605.386 107.793 599.295C112.219 593.204 129.899 604.208 143.776 626.594C157.631 648.981 169.329 640.978 165.482 632.463C161.634 623.949 169.774 611.566 182.295 628.017C194.815 644.49 195.438 656.695 200.62 661.185C205.801 665.676 205.334 652.76 212.651 651.315C219.946 649.87 240.828 686.106 246.766 698.177C252.726 710.248 239.716 719.874 239.716 719.874H239.694Z" fill="#6DA1A4"/>
<path d="M216.12 671.811C214.564 672.3 213.719 673.945 214.208 675.502L221.702 699.311C218.211 697.643 214.742 695.998 211.272 694.353L205.446 677.614C204.912 676.08 203.244 675.279 201.709 675.813C200.175 676.346 199.374 678.014 199.908 679.548L203.844 690.841C202.443 690.174 201.042 689.529 199.641 688.862L185.564 655.361C184.941 653.871 183.206 653.16 181.716 653.782C180.226 654.405 179.515 656.139 180.137 657.628L191.702 685.15C185.92 682.482 180.204 679.837 174.578 677.28L164.993 655.783C164.325 654.294 162.591 653.627 161.123 654.294C159.633 654.961 158.966 656.694 159.633 658.162L166.505 673.59C162.502 671.767 158.521 669.988 154.607 668.232L134.681 629.395C133.947 627.95 132.167 627.372 130.722 628.128C129.276 628.862 128.698 630.64 129.454 632.085L146.045 664.409C139.707 661.585 133.546 658.873 127.586 656.25L115.444 637.798C114.554 636.442 112.73 636.064 111.374 636.954C110.039 637.843 109.639 639.666 110.529 641.022L117.712 651.915C113.82 650.225 110.017 648.58 106.348 646.98L84.9314 615.323C84.0196 613.989 82.196 613.634 80.8617 614.545C79.5273 615.457 79.1715 617.279 80.0833 618.636L96.3624 642.711C91.8256 640.777 87.489 638.932 83.3969 637.198L71.1654 618.636C70.2758 617.279 68.4522 616.902 67.0956 617.791C65.739 618.68 65.361 620.503 66.2505 621.859L73.6339 633.063C53.1516 624.46 40.5643 619.436 40.2307 619.28C38.7184 618.68 37.006 619.414 36.4055 620.925C35.8051 622.437 36.539 624.149 38.0512 624.749C38.4071 624.882 51.4837 630.129 72.7444 639.066L60.535 642.734C58.9783 643.2 58.111 644.846 58.578 646.402C59.045 647.958 60.6907 648.825 62.2475 648.358L81.262 642.645C85.7321 644.534 90.4912 646.557 95.4728 648.691L70.5649 655.427C69.0082 655.85 68.0741 657.473 68.4967 659.029C68.9192 660.585 70.5427 661.519 72.0994 661.096L104.168 652.426C108.349 654.227 112.664 656.094 117.112 658.028L101.789 662.63C100.232 663.097 99.3424 664.742 99.8095 666.298C100.276 667.854 101.922 668.743 103.479 668.277L125.451 661.696C131.834 664.497 138.461 667.432 145.244 670.455L113.109 684.438C111.618 685.083 110.929 686.817 111.596 688.307C112.241 689.796 113.976 690.485 115.466 689.818L152.516 673.679C156.942 675.657 161.434 677.702 165.993 679.77L150.893 688.462C149.492 689.262 149.003 691.063 149.803 692.464C150.604 693.864 152.405 694.353 153.806 693.553L172.554 682.771C178.581 685.528 184.674 688.329 190.857 691.197L164.348 705.38C162.924 706.136 162.368 707.936 163.147 709.359C163.903 710.782 165.704 711.338 167.128 710.559L197.528 694.309C199.13 695.065 200.731 695.798 202.332 696.554L191.502 702.09C190.056 702.823 189.478 704.602 190.212 706.047C190.946 707.492 192.725 708.07 194.17 707.314L209.048 699.711C212.874 701.512 216.699 703.334 220.546 705.18L200.264 717.851C198.885 718.718 198.463 720.519 199.33 721.897C200.197 723.275 201.999 723.698 203.377 722.831L226.795 708.181C231.199 710.315 235.624 712.449 240.05 714.628C241.273 715.228 242.719 714.894 243.564 713.916C243.719 713.738 243.875 713.516 243.986 713.294C244.698 711.827 244.097 710.07 242.63 709.359C238.093 707.136 233.556 704.935 229.019 702.756L219.857 673.679C219.367 672.123 217.722 671.278 216.165 671.767L216.12 671.811Z" fill="#528E8D"/>
<path d="M229.998 720.541C229.998 720.541 196.194 706.047 189.856 694.531C183.518 683.016 197.684 685.839 195.905 677.769C194.126 669.7 171.219 656.761 170.441 645.513C169.663 634.264 187.187 639.421 186.075 628.128C184.986 616.857 159.032 604.564 156.964 586.957C154.896 569.35 172.621 578.776 179.359 577.198C186.097 575.619 183.963 564.882 172.665 550.543C161.39 536.204 160.167 516.708 164.881 512.618C169.596 508.527 178.892 522.977 183.651 518.22C188.433 513.485 169.64 477.004 185.186 469.801C200.731 462.599 211.228 493.588 213.808 506.326C216.387 519.087 221.169 489.698 225.172 485.874C229.197 482.028 241.606 485.652 235.78 518.842C229.953 552.033 230.353 560.614 237.826 561.414C245.298 562.214 245.988 543.252 253.527 543.385C261.066 543.541 262.133 564.326 251.681 588.491C241.228 612.656 254.483 617.68 259.287 609.655C264.09 601.629 278.902 601.229 272.541 620.903C266.181 640.577 256.507 648.091 255.795 654.916C255.083 661.741 265.425 653.96 270.784 659.14C276.144 664.32 258.33 702.134 251.814 713.917C245.298 725.699 229.975 720.519 229.975 720.519L229.998 720.541Z" fill="#6DA1A4"/>
<path d="M255.973 673.746C254.683 672.745 252.837 672.99 251.859 674.279L236.603 694.042C235.98 690.241 235.357 686.439 234.712 682.66L245.12 668.321C246.077 667.01 245.787 665.165 244.475 664.209C243.163 663.253 241.317 663.542 240.361 664.853L233.334 674.524C233.067 672.99 232.8 671.478 232.555 669.944L251.992 639.244C252.86 637.865 252.459 636.065 251.08 635.198C249.702 634.331 247.9 634.731 247.033 636.109L231.065 661.341C229.953 655.072 228.863 648.892 227.752 642.801L239.916 622.659C240.761 621.259 240.317 619.458 238.916 618.636C237.537 617.791 235.713 618.236 234.89 619.636L226.15 634.108C225.35 629.773 224.549 625.505 223.748 621.281L244.231 582.733C244.987 581.31 244.453 579.532 243.008 578.754C241.584 577.998 239.805 578.532 239.027 579.977L221.992 612.055C220.679 605.253 219.39 598.628 218.144 592.248L226.35 571.729C226.951 570.217 226.217 568.506 224.705 567.905C223.215 567.305 221.48 568.039 220.88 569.55L216.031 581.666C215.186 577.509 214.386 573.441 213.585 569.528L227.329 533.87C227.907 532.358 227.151 530.647 225.639 530.069C224.127 529.491 222.414 530.247 221.836 531.758L211.383 558.88C210.383 554.056 209.426 549.454 208.492 545.097L216.721 524.444C217.321 522.933 216.587 521.221 215.075 520.621C213.563 520.02 211.85 520.754 211.25 522.266L206.268 534.737C201.62 513.018 198.574 499.835 198.485 499.457C198.107 497.879 196.55 496.878 194.949 497.256C193.37 497.634 192.391 499.213 192.747 500.791C192.836 501.169 196.016 514.907 200.82 537.427L190.812 529.513C189.545 528.513 187.699 528.713 186.676 530.002C185.675 531.269 185.875 533.114 187.165 534.137L202.732 546.475C203.733 551.232 204.801 556.279 205.89 561.592L186.142 545.008C184.897 543.963 183.051 544.119 182.005 545.363C180.96 546.608 181.116 548.453 182.361 549.498L207.803 570.84C208.715 575.286 209.649 579.91 210.583 584.645L198.04 574.686C196.772 573.685 194.926 573.885 193.903 575.153C192.903 576.42 193.103 578.265 194.37 579.287L212.34 593.537C213.696 600.384 215.075 607.476 216.476 614.79L186.631 596.427C185.252 595.583 183.429 596.005 182.584 597.383C181.739 598.762 182.161 600.584 183.54 601.429L217.944 622.593C218.834 627.35 219.745 632.196 220.657 637.132L204.89 629.707C203.422 629.018 201.665 629.64 200.976 631.107C200.286 632.574 200.909 634.331 202.377 635.02L221.947 644.223C223.126 650.737 224.304 657.339 225.483 664.053L198.685 650.403C197.239 649.67 195.46 650.248 194.726 651.693C193.992 653.138 194.571 654.916 196.016 655.65L226.729 671.3C227.018 673.034 227.329 674.768 227.618 676.524L216.877 670.811C215.453 670.055 213.674 670.589 212.896 672.012C212.14 673.434 212.673 675.213 214.097 675.991L228.841 683.838C229.531 687.995 230.242 692.197 230.932 696.399L208.937 687.017C207.447 686.373 205.712 687.084 205.09 688.573C204.445 690.063 205.156 691.797 206.647 692.419L232.066 703.268C232.844 708.114 233.6 712.961 234.357 717.829C234.557 719.185 235.646 720.163 236.959 720.297C237.203 720.319 237.47 720.319 237.715 720.297C239.316 720.052 240.428 718.54 240.183 716.94C239.405 711.938 238.626 706.958 237.826 702.001L256.462 677.881C257.463 676.591 257.218 674.746 255.929 673.768L255.973 673.746Z" fill="#528E8D"/>
<mask id="mask0_61380_1958" style="mask-type:luminance" maskUnits="userSpaceOnUse" x="724" y="545" width="266" height="191">
<path d="M847.091 545.208H867.151C934.958 545.208 990 600.229 990 668.01C990 705.069 959.91 735.147 922.838 735.147H791.404C754.331 735.147 724.242 705.069 724.242 668.01C724.242 600.229 779.284 545.208 847.091 545.208Z" fill="white"/>
</mask>
<g mask="url(#mask0_61380_1958)">
<path d="M842.999 720.186C842.999 720.186 822.383 731.234 814.066 705.536C805.726 679.837 823.429 662.653 845.223 655.517C867.017 648.38 883.719 606.476 909.027 607.721C934.358 608.943 915.365 647.513 906.781 671.278C898.197 695.043 897.485 716.984 887.566 728.967C877.648 740.949 852.428 745.329 842.977 720.208L842.999 720.186Z" fill="#18203D"/>
<path d="M907.048 638.132C906.648 636.999 905.38 636.398 904.246 636.821L898.041 639.066C903.2 631.908 906.358 627.795 906.514 627.595C907.248 626.639 907.07 625.261 906.114 624.527C905.158 623.794 903.779 623.971 903.045 624.927C902.889 625.127 899.598 629.418 894.216 636.887L894.105 630.974C894.105 629.751 893.082 628.795 891.881 628.818C890.658 628.818 889.701 629.84 889.724 631.041L889.946 642.89C885.609 649.025 880.45 656.562 874.779 665.209L874.423 645.335C874.423 644.112 873.4 643.157 872.199 643.179C870.976 643.179 870.02 644.201 870.042 645.402L870.509 671.745C868.196 675.324 865.839 679.059 863.437 682.927L862.058 669.678C861.925 668.477 860.879 667.566 859.656 667.721C858.455 667.855 857.566 668.922 857.699 670.122L859.656 689.041C856.076 694.91 852.406 701.067 848.737 707.47C846.891 700.289 843.51 686.373 841.242 676.925C840.953 675.747 839.774 675.013 838.596 675.302C837.417 675.591 836.683 676.769 836.972 677.947C842.354 700.512 844.467 709.293 845.712 712.783C830.256 740.216 815.044 771.428 804.859 802.373C804.481 803.529 805.103 804.774 806.26 805.151C806.504 805.24 806.749 805.263 806.994 805.263C807.906 805.263 808.751 804.662 809.04 803.751C819.136 773.05 834.259 742.039 849.626 714.784C853.585 713.672 872.866 709.448 884.987 706.847C886.165 706.603 886.921 705.425 886.677 704.246C886.432 703.068 885.276 702.312 884.075 702.557C866.951 706.225 857.699 708.27 852.629 709.493C856.254 703.179 859.879 697.088 863.415 691.286L884.786 684.661C885.943 684.306 886.588 683.083 886.232 681.905C885.876 680.749 884.653 680.104 883.474 680.46L866.906 685.595C869.419 681.571 871.865 677.681 874.267 673.968L899.82 662.764C900.932 662.275 901.444 660.985 900.954 659.874C900.465 658.762 899.175 658.251 898.063 658.74L878.648 667.255C884.253 658.762 889.345 651.337 893.593 645.268L905.78 640.867C906.914 640.444 907.515 639.199 907.092 638.066L907.048 638.132Z" fill="#18203D"/>
<path d="M790.448 708.759C790.448 708.759 786.8 728.789 764.761 720.497C742.722 712.227 740.632 690.863 747.593 672.145C754.554 653.427 735.072 619.347 749.661 602.785C764.25 586.223 780.218 620.058 791.738 638.799C803.28 657.517 817.824 669.922 820.604 683.171C823.384 696.421 812.687 715.961 790.448 708.759Z" fill="#18203D"/>
<path d="M769.32 620.636C768.32 620.303 767.23 620.836 766.896 621.837L765.05 627.283C762.96 619.88 761.892 615.501 761.826 615.301C761.581 614.278 760.536 613.656 759.513 613.9C758.49 614.145 757.867 615.19 758.112 616.212C758.156 616.412 759.29 620.992 761.47 628.728L757.378 625.594C756.533 624.949 755.332 625.105 754.709 625.949C754.087 626.794 754.22 627.995 755.065 628.617L763.249 634.908C765.095 641.177 767.408 648.802 770.21 657.339L756.488 646.802C755.643 646.157 754.442 646.313 753.82 647.157C753.197 648.002 753.33 649.203 754.175 649.825L772.389 663.808C773.568 667.321 774.836 670.944 776.17 674.701L766.407 668.454C765.517 667.876 764.317 668.121 763.761 669.032C763.182 669.922 763.449 671.1 764.339 671.678L778.283 680.615C780.329 686.239 782.553 692.086 784.91 698.043C779.017 695.398 767.697 690.152 760.047 686.572C759.09 686.128 757.956 686.55 757.511 687.484C757.067 688.44 757.467 689.574 758.423 690.018C776.726 698.599 783.843 701.934 786.889 702.956C797.208 728.366 810.196 755.665 825.741 779.363C826.319 780.253 827.498 780.497 828.388 779.919C828.566 779.808 828.721 779.652 828.855 779.474C829.344 778.852 829.388 777.963 828.944 777.274C813.51 753.754 800.611 726.632 790.359 701.378C791.76 698.088 799.343 682.66 804.147 673.012C804.614 672.056 804.236 670.922 803.28 670.455C802.346 669.988 801.189 670.366 800.722 671.322C793.939 684.972 790.292 692.352 788.402 696.487C786.067 690.596 783.887 684.838 781.863 679.258L788.935 661.118C789.313 660.14 788.824 659.029 787.846 658.651C786.867 658.273 785.755 658.74 785.377 659.74L779.884 673.79C778.505 669.899 777.193 666.12 775.97 662.474L782.197 638.999C782.464 637.976 781.863 636.931 780.84 636.665C779.817 636.398 778.772 636.998 778.505 638.021L773.768 655.85C771.011 647.424 768.72 639.932 766.919 633.752L770.521 623.082C770.855 622.081 770.321 620.992 769.32 620.658V620.636Z" fill="#18203D"/>
<path d="M884.186 705.602C884.186 705.602 864.215 709.559 863.815 686.039C863.414 662.519 882.496 652.693 902.466 652.293C922.437 651.893 946.967 621.237 967.761 628.706C988.532 636.176 962.913 663.453 949.747 681.06C936.559 698.666 930.377 716.74 919.079 724.209C907.782 731.679 885.654 728.922 884.186 705.602Z" fill="#6DA1A4"/>
<path d="M958.398 653.538C958.354 652.493 957.442 651.671 956.396 651.737L950.659 652.026C956.774 647.38 960.466 644.757 960.622 644.624C961.489 644.023 961.689 642.823 961.067 641.956C960.466 641.089 959.265 640.889 958.398 641.489C958.22 641.6 954.373 644.357 947.99 649.203L949.413 644.246C949.702 643.223 949.124 642.178 948.101 641.889C947.078 641.6 946.033 642.178 945.744 643.201L942.897 653.116C937.738 657.139 931.511 662.097 924.594 667.855L929.354 651.226C929.643 650.204 929.064 649.159 928.041 648.87C927.018 648.581 925.973 649.159 925.684 650.181L919.39 672.234C916.566 674.635 913.653 677.125 910.65 679.748L912.874 668.366C913.074 667.321 912.43 666.299 911.362 666.121C910.317 665.921 909.316 666.588 909.116 667.632L905.936 683.883C901.443 687.862 896.84 692.064 892.17 696.443C892.459 689.996 893.17 677.547 893.704 669.1C893.771 668.055 892.97 667.143 891.925 667.077C890.88 667.01 889.968 667.81 889.901 668.855C888.656 689.018 888.167 696.866 888.322 700.067C868.485 718.985 847.869 741.127 831.546 764.291C830.945 765.158 831.145 766.337 832.013 766.959C832.191 767.092 832.391 767.181 832.591 767.226C833.347 767.448 834.192 767.181 834.681 766.492C850.894 743.483 871.376 721.52 891.08 702.712C894.66 702.801 911.807 704.18 922.548 705.091C923.594 705.18 924.528 704.402 924.617 703.357C924.706 702.312 923.949 701.379 922.882 701.29C907.693 700 899.486 699.333 894.95 699.089C899.575 694.754 904.134 690.597 908.56 686.662L928.041 686.573C929.087 686.573 929.954 685.706 929.954 684.661C929.954 683.616 929.087 682.749 928.041 682.771L912.941 682.838C916.055 680.126 919.079 677.503 922.015 675.035L946.144 672.19C947.189 672.056 947.946 671.123 947.812 670.078C947.679 669.033 946.745 668.277 945.699 668.41L927.352 670.567C934.179 664.898 940.295 660.029 945.388 656.072L956.641 655.494C957.686 655.45 958.509 654.538 958.442 653.494L958.398 653.538Z" fill="#528E8D"/>
<path d="M820.315 677.591C820.315 677.591 803.502 693.62 788.713 671.189C773.946 648.758 786.333 627.639 805.348 615.034C824.34 602.452 829.255 557.901 853.829 552.388C878.426 546.875 870.42 588.824 868.485 613.856C866.55 638.888 871.643 660.096 865.327 674.168C859.011 688.262 835.994 699.133 820.315 677.547V677.591Z" fill="#6DA1A4"/>
<path d="M859.99 582.066C859.3 581.088 857.944 580.843 856.943 581.555L851.583 585.356C854.63 577.131 856.565 572.351 856.654 572.129C857.121 571.017 856.587 569.75 855.475 569.283C854.363 568.817 853.095 569.35 852.628 570.462C852.54 570.684 850.493 575.664 847.336 584.267L845.668 578.643C845.334 577.487 844.111 576.82 842.954 577.175C841.798 577.509 841.131 578.732 841.487 579.888L844.822 591.181C842.309 598.206 839.329 606.787 836.194 616.568L830.612 597.628C830.278 596.472 829.055 595.805 827.898 596.16C826.742 596.494 826.075 597.717 826.431 598.873L833.836 623.993C832.569 628.017 831.301 632.219 830.011 636.576L825.208 624.238C824.763 623.104 823.517 622.526 822.383 622.993C821.271 623.437 820.715 624.682 821.138 625.816L828.01 643.423C826.119 650.003 824.251 656.872 822.428 663.964C818.758 657.562 811.842 645.135 807.194 636.687C806.616 635.642 805.281 635.242 804.236 635.82C803.191 636.398 802.79 637.732 803.369 638.777C814.488 658.962 818.825 666.832 820.938 669.833C813.399 700.2 807.06 734.102 805.481 766.425C805.415 767.626 806.349 768.648 807.55 768.715C807.794 768.715 808.039 768.715 808.261 768.626C809.129 768.382 809.774 767.603 809.818 766.647C811.375 734.569 817.668 700.889 825.185 670.722C828.699 668.61 846.046 659.473 856.965 653.782C858.033 653.227 858.455 651.915 857.899 650.848C857.343 649.781 856.031 649.358 854.964 649.914C839.53 657.962 831.212 662.341 826.698 664.875C828.499 657.873 830.367 651.092 832.213 644.579L850.916 632.574C851.939 631.93 852.228 630.574 851.583 629.573C850.938 628.551 849.582 628.261 848.581 628.906L834.081 638.199C835.415 633.686 836.75 629.306 838.062 625.127L859.589 607.654C860.523 606.898 860.657 605.519 859.901 604.586C859.145 603.652 857.766 603.519 856.832 604.275L840.486 617.546C843.599 607.92 846.513 599.473 849.003 592.559L859.5 585.134C860.479 584.445 860.723 583.067 860.012 582.088L859.99 582.066Z" fill="#528E8D"/>
</g>
<path d="M348.599 722.742H271.963C268.872 722.742 265.847 721.297 264.268 718.629C262.022 714.85 262.979 710.159 266.292 707.536C307.613 674.968 295.025 579.776 292.601 563.926C292.401 562.681 293.246 561.503 294.491 561.28L306.679 559.124C307.968 558.902 309.192 559.746 309.392 561.036C311.838 576.442 323.158 659.673 291.245 705.446C291.178 705.557 291.245 705.713 291.378 705.713H348.599C349.889 705.713 350.935 706.758 350.935 708.047V720.407C350.935 721.697 349.889 722.742 348.599 722.742Z" fill="#5A89C6"/>
<path d="M293.551 379.719L287.936 380.659C282.17 381.623 278.277 387.078 279.242 392.842L327.161 679.083C328.126 684.847 333.583 688.738 339.349 687.774L344.964 686.834C350.73 685.87 354.622 680.415 353.658 674.651L305.739 388.41C304.774 382.646 299.317 378.755 293.551 379.719Z" fill="#5A89C6"/>
<path d="M478.365 700.489H377.599C372.846 700.489 368.993 704.341 368.993 709.093V714.139C368.993 718.89 372.846 722.742 377.599 722.742H478.365C483.118 722.742 486.972 718.89 486.972 714.139V709.093C486.972 704.341 483.118 700.489 478.365 700.489Z" fill="#5A89C6"/>
<path d="M883.074 741.305H176.023C170.375 741.305 165.771 736.725 165.771 731.056C165.771 725.41 170.352 720.808 176.023 720.808H883.074C888.723 720.808 893.326 725.388 893.326 731.056C893.326 736.703 888.745 741.305 883.074 741.305Z" fill="#EABC32"/>
<path d="M847.58 672.523C839.307 672.523 832.591 679.237 832.591 687.506C832.591 695.776 839.307 702.49 847.58 702.49C855.853 702.49 862.569 695.776 862.569 687.506C862.569 679.237 855.853 672.523 847.58 672.523ZM847.58 697.821C841.887 697.821 837.261 693.22 837.261 687.506C837.261 681.793 841.865 677.169 847.58 677.169C853.295 677.169 857.921 681.793 857.921 687.506C857.921 693.22 853.295 697.821 847.58 697.821Z" fill="#E5D157"/>
<path d="M837.951 675.391C837.951 675.391 837.484 715.495 802.835 720.83H794.162C759.513 715.495 759.046 675.391 759.046 675.391L798.52 678.258L837.995 675.391H837.951Z" fill="#E5D157"/>
<path d="M837.951 675.391C837.951 678.503 820.293 681.037 798.498 681.037C776.704 681.037 759.046 678.503 759.046 675.391C759.046 672.278 776.704 669.744 798.498 669.744C820.293 669.744 837.951 672.278 837.951 675.391Z" fill="#FFEB88"/>
<path d="M827.209 675.391C827.209 676.969 814.355 678.259 798.498 678.259C782.642 678.259 769.788 676.969 769.788 675.391C769.788 673.812 782.642 672.523 798.498 672.523C814.355 672.523 827.209 673.812 827.209 675.391Z" fill="#18203D"/>
<path d="M265.314 458.13L245.187 469.846V494.566C245.187 502.68 238.604 509.261 230.465 509.261H110.507C102.389 509.261 95.7842 502.68 95.7842 494.566V421.716C95.7842 413.602 102.389 407 110.507 407H230.465C238.604 407 245.187 413.602 245.187 421.716V446.415L265.314 458.13Z" fill="white"/>
<path d="M208.403 428.43H132.568C129.559 428.43 127.119 430.868 127.119 433.876V482.339C127.119 485.347 129.559 487.786 132.568 487.786H208.403C211.413 487.786 213.852 485.347 213.852 482.339V433.876C213.852 430.868 211.413 428.43 208.403 428.43Z" fill="#E5D157"/>
<path d="M206.602 437.522L170.486 458.13L134.369 437.522" stroke="white" stroke-width="2" stroke-linecap="round" stroke-linejoin="round"/>
<path d="M345.686 240.958V313.808C345.686 321.923 339.103 328.503 330.964 328.503H282.705L270.985 348.622L259.265 328.503H211.006C202.888 328.503 196.283 321.923 196.283 313.808V240.958C196.283 232.844 202.888 226.242 211.006 226.242H330.964C339.103 226.242 345.686 232.844 345.686 240.958Z" fill="#E5D157"/>
<path d="M245.743 277.795C245.743 283.13 241.429 287.443 236.091 287.443C230.754 287.443 226.439 283.13 226.439 277.795C226.439 272.459 230.754 268.146 236.091 268.146C241.429 268.146 245.743 272.459 245.743 277.795Z" fill="white"/>
<path d="M280.636 277.795C280.636 283.13 276.322 287.443 270.985 287.443C265.647 287.443 261.333 283.13 261.333 277.795C261.333 272.459 265.647 268.146 270.985 268.146C276.322 268.146 280.636 272.459 280.636 277.795Z" fill="white"/>
<path d="M315.53 277.795C315.53 283.13 311.215 287.443 305.878 287.443C300.54 287.443 296.226 283.13 296.226 277.795C296.226 272.459 300.54 268.146 305.878 268.146C311.215 268.146 315.53 272.459 315.53 277.795Z" fill="white"/>
<path d="M451.782 132.487L446.053 134.211C444.701 134.618 443.935 136.044 444.342 137.396L451.23 160.258C451.637 161.61 453.063 162.376 454.416 161.968L460.144 160.244C461.497 159.837 462.263 158.411 461.855 157.059L454.968 134.197C454.561 132.845 453.134 132.079 451.782 132.487Z" fill="#D15735"/>
<path d="M437.779 171.888C437.067 177.001 436.844 183.915 438.957 190.962C441.092 198.031 445.095 203.678 448.498 207.524C451.789 211.236 456.971 212.637 461.708 211.214L466.156 209.88L473.206 233.312C473.206 233.312 438.312 237.002 425.658 194.964C413.004 152.948 444.139 136.764 444.139 136.764L451.189 160.195L446.741 161.529C442.004 162.951 438.468 166.975 437.756 171.888H437.779Z" fill="#D15735"/>
<path d="M473.588 204.864L467.859 206.588C466.507 206.996 465.741 208.422 466.148 209.774L473.036 232.635C473.443 233.987 474.87 234.753 476.222 234.346L481.95 232.621C483.303 232.214 484.069 230.788 483.662 229.436L476.774 206.575C476.367 205.223 474.94 204.457 473.588 204.864Z" fill="#D15735"/>
<path d="M418.23 243.27L422.789 235.179C415.584 231.755 390.187 217.683 387.318 188.694C383.737 152.147 405.109 131.161 405.109 131.161L425.169 142.477C425.169 142.477 404.842 160.506 404.842 187.471C404.842 212.948 420.165 225.997 425.747 229.91L429.795 222.707L443.672 243.293H418.208L418.23 243.27Z" fill="#18203D"/>
<path d="M500.004 124.27L495.445 132.362C502.65 135.785 528.047 149.857 530.916 178.846C534.497 215.393 513.125 236.379 513.125 236.379L493.065 225.064C493.065 225.064 513.392 207.035 513.392 180.069C513.392 154.592 498.069 141.543 492.487 137.63L488.439 144.833L474.562 124.248H500.026L500.004 124.27Z" fill="#18203D"/>
<path d="M876.002 481.939V560.591C876.002 568.639 869.486 575.152 861.435 575.152H782.775C774.725 575.152 768.186 568.639 768.186 560.591V481.939C768.186 473.891 774.725 467.378 782.775 467.378H861.435C869.486 467.378 876.002 473.891 876.002 481.939Z" fill="white"/>
<path d="M835.793 521.891C843.357 514.329 843.357 502.069 835.793 494.508C828.228 486.946 815.963 486.946 808.399 494.508C800.834 502.069 800.834 514.329 808.399 521.891C815.963 529.453 828.228 529.453 835.793 521.891Z" fill="#E5D157"/>
<path d="M855.186 567.305V575.152H788.98V567.305C788.98 549.031 803.814 534.226 822.094 534.226C831.234 534.226 839.507 537.916 845.512 543.918C851.517 549.92 855.208 558.19 855.208 567.327L855.186 567.305Z" fill="#E5D157"/>
<path d="M811.864 401.442C815.044 398.441 820.07 398.574 823.095 401.753C826.097 404.932 825.964 409.956 822.784 412.98C819.603 415.981 814.577 415.847 811.553 412.668C808.55 409.489 808.684 404.465 811.864 401.442Z" fill="#DB9431"/>
<path d="M796.83 351.69C799.499 349.156 803.725 349.289 806.26 351.957C808.795 354.624 808.662 358.848 805.993 361.382C803.324 363.917 799.099 363.783 796.564 361.116C794.028 358.448 794.162 354.224 796.83 351.69Z" fill="#447777"/>
<path d="M754.176 345.776C755.866 344.176 758.534 344.265 760.136 345.954C761.737 347.644 761.648 350.311 759.958 351.912C758.268 353.513 755.599 353.424 754.02 351.734C752.419 350.045 752.508 347.377 754.198 345.776H754.176Z" fill="#C9414E"/>
<path d="M385.205 426.452C381.046 425.073 378.778 420.583 380.157 416.426C381.535 412.268 386.028 410.001 390.187 411.379C394.345 412.757 396.614 417.248 395.235 421.405C393.856 425.562 389.364 427.83 385.205 426.452Z" fill="#DB9431"/>
<path d="M353.025 438.834C349.533 437.678 347.621 433.921 348.777 430.409C349.934 426.918 353.692 425.007 357.206 426.163C360.697 427.319 362.61 431.076 361.454 434.588C360.297 438.078 356.539 439.99 353.025 438.834Z" fill="#447777"/>
<path d="M367.569 475.315C365.368 474.581 364.167 472.202 364.901 470.001C365.635 467.801 368.014 466.6 370.216 467.334C372.418 468.067 373.618 470.446 372.885 472.647C372.151 474.848 369.771 476.048 367.569 475.315Z" fill="#C9414E"/>
</g>
<defs>
<clipPath id="clip0_61380_1958">
<rect width="990" height="817" fill="white"/>
</clipPath>
</defs>
</svg>
