<?xml version="1.0" encoding="UTF-8"?>
<svg id="Layer_2" data-name="Layer 2" xmlns="http://www.w3.org/2000/svg" viewBox="0 0 213.43 60.16">
  <defs>
    <style>
      .cls-1 {
        fill: #d2302c;
      }
    </style>
  </defs>
  <g id="Layer_1-2" data-name="Layer 1">
    <g id="Logo">
      <g id="Logo-2" data-name="Logo">
        <g id="codelit">
          <path id="C" class="cls-1" d="M32.16,55.52c-.3-2.76.16-5.36,1.16-7.38l-21.62-8.65v-5.11l15.94-6.37c-2.12-1.67-3.39-4.42-3.15-7.42.11-1.52.6-2.92,1.35-4.12v-.04s-14.14,6.19-14.14,6.19L0,27.75c.52,1.67.88,3.6,1.05,5.71.05.59.08,1.19.09,1.81.04,1.08.02,2.21-.06,3.36-.01.24-.03.48-.05.73-.03.37-.07.74-.12,1.1-.18,1.74-.49,3.42-.89,4.98l11.68,5.15,21.73,9.57c-.64-1.37-1.09-2.94-1.27-4.64Z"/>
          <path id="o" class="cls-1" d="M37.19,37.43c0-8.76,6.76-14.98,16.01-14.98s15.95,6.22,15.95,14.98-6.71,14.98-15.95,14.98-16.01-6.22-16.01-14.98ZM60.61,37.43c0-5.03-3.19-8.06-7.41-8.06s-7.46,3.03-7.46,8.06,3.25,8.06,7.46,8.06,7.41-3.03,7.41-8.06Z"/>
          <path id="d" class="cls-1" d="M105.93,11.86v40.12h-8.06v-3.35c-2.11,2.54-5.19,3.79-9.08,3.79-8.22,0-14.55-5.84-14.55-14.98s6.33-14.98,14.55-14.98c3.57,0,6.6,1.14,8.71,3.51v-14.11h8.44ZM97.65,37.43c0-5.03-3.25-8.06-7.41-8.06s-7.46,3.03-7.46,8.06,3.24,8.06,7.46,8.06,7.41-3.03,7.41-8.06Z"/>
          <path id="e" class="cls-1" d="M143.57,39.81h-22.01c.81,3.62,3.89,5.84,8.33,5.84,3.08,0,5.3-.92,7.3-2.81l4.49,4.87c-2.7,3.08-6.76,4.71-12,4.71-10.06,0-16.6-6.33-16.6-14.98s6.65-14.98,15.52-14.98,15.14,5.73,15.14,15.09c0,.65-.11,1.57-.16,2.27ZM121.45,34.89h14.33c-.59-3.68-3.35-6.06-7.14-6.06s-6.6,2.33-7.19,6.06Z"/>
          <path id="l" class="cls-1" d="M150.87,11.86h8.44v40.12h-8.44V11.86Z"/>
          <path id="i" class="cls-1" d="M167.63,14.13c0-2.65,2.11-4.7,5.25-4.7s5.25,1.95,5.25,4.54c0,2.81-2.11,4.87-5.25,4.87s-5.25-2.05-5.25-4.71ZM168.66,22.89h8.44v29.09h-8.44v-29.09Z"/>
          <path id="t" class="cls-1" d="M205.22,50.58c-1.73,1.24-4.27,1.84-6.87,1.84-6.87,0-10.87-3.52-10.87-10.44v-11.95h-4.49v-6.49h4.49v-7.08h8.44v7.08h7.25v6.49h-7.25v11.84c0,2.49,1.35,3.84,3.62,3.84,1.24,0,2.49-.38,3.41-1.08l2.27,5.95Z"/>
        </g>
      </g>
      <g id="TM">
        <path id="M" class="cls-1" d="M212.76,2.51c-.03-.62-.07-1.37-.07-1.93h-.02c-.15.52-.34,1.08-.56,1.7l-.79,2.17h-.44l-.72-2.13c-.21-.63-.39-1.21-.52-1.74h-.01c-.01.56-.05,1.31-.09,1.98l-.12,1.92h-.55l.31-4.47h.74l.76,2.16c.19.55.34,1.04.45,1.51h.02c.11-.45.27-.94.47-1.51l.8-2.16h.74l.28,4.47h-.56l-.11-1.96Z"/>
        <path id="T" class="cls-1" d="M206.54.49h-1.36v-.49h3.31v.49h-1.37v3.98h-.58V.49Z"/>
      </g>
    </g>
  </g>
</svg>